<?xml version="1.0" encoding="UTF-8" standalone="no"?>
<!DOCTYPE svg PUBLIC "-//W3C//DTD SVG 1.1//EN" "http://www.w3.org/Graphics/SVG/1.1/DTD/svg11.dtd">
<!-- Generated by Microsoft Visio, SVG Export newprob.svg Page-1 -->
<svg xmlns="http://www.w3.org/2000/svg" xmlns:xlink="http://www.w3.org/1999/xlink" xmlns:ev="http://www.w3.org/2001/xml-events"
		xmlns:v="http://schemas.microsoft.com/visio/2003/SVGExtensions/" width="7.87833in" height="9.4838in"
		viewBox="0 0 567.24 682.834" xml:space="preserve" color-interpolation-filters="sRGB" class="st24">
	<v:documentProperties v:langID="1033" v:viewMarkup="false"/>

	<style type="text/css">
	<![CDATA[
		.st1 {fill:#3f3f3f;stroke:#000000;stroke-linecap:round;stroke-linejoin:round;stroke-width:0.24}
		.st2 {fill:#ffffff;stroke:#548bd4;stroke-linecap:round;stroke-linejoin:round;stroke-width:0.25}
		.st3 {fill:#000000;font-family:Arial;font-size:0.499992em}
		.st4 {fill:#ffffff;stroke:#548bd4;stroke-dasharray:0,1.25;stroke-linecap:round;stroke-linejoin:round;stroke-width:0.25}
		.st5 {fill:none;stroke:none;stroke-linecap:round;stroke-linejoin:round;stroke-width:0.24}
		.st6 {fill:#ffffff;font-family:Arial;font-size:0.583328em}
		.st7 {marker-end:url(#mrkr5-34);stroke:#ffff00;stroke-dasharray:1.68,1.2;stroke-linecap:round;stroke-linejoin:round;stroke-width:0.24}
		.st8 {fill:#ffff00;fill-opacity:1;stroke:#ffff00;stroke-opacity:1;stroke-width:0.11764705882353}
		.st9 {stroke:#ffff00;stroke-dasharray:1.68,1.2;stroke-linecap:round;stroke-linejoin:round;stroke-width:0.24}
		.st10 {marker-end:url(#mrkr5-49);stroke:#ffff00;stroke-dasharray:1.68,1.2;stroke-linecap:round;stroke-linejoin:round;stroke-width:0.24}
		.st11 {fill:#ffffff;stroke:#ff0000;stroke-linecap:round;stroke-linejoin:round;stroke-width:0.5}
		.st12 {fill:#ffffff;font-family:Arial;font-size:0.833336em}
		.st13 {fill:#00b050;fill-opacity:0.8;stroke:#00b050;stroke-linecap:round;stroke-linejoin:round;stroke-width:0.25}
		.st14 {fill:#ffffff;font-family:Arial;font-size:0.666664em}
		.st15 {fill:#ffff00;stroke:#548bd4;stroke-linecap:round;stroke-linejoin:round;stroke-width:0.25}
		.st16 {marker-end:url(#mrkr5-180);stroke:#ff0000;stroke-dasharray:1.68,1.2;stroke-linecap:round;stroke-linejoin:round;stroke-width:0.24}
		.st17 {fill:#ff0000;fill-opacity:1;stroke:#ff0000;stroke-opacity:1;stroke-width:0.11764705882353}
		.st18 {fill:#ff0000;fill-opacity:0.43;stroke:#ff0000;stroke-linecap:round;stroke-linejoin:round;stroke-opacity:0.81;stroke-width:0.5}
		.st19 {fill:#ffffff;font-family:Arial;font-size:0.499992em}
		.st20 {stroke:#000000;stroke-linecap:round;stroke-linejoin:round;stroke-width:0.75}
		.st21 {font-size:1em}
		.st22 {fill:#00b050;font-family:Arial;font-size:0.583328em}
		.st23 {fill:#ffffff;font-family:Arial;font-size:0.583328em;font-style:italic}
		.st24 {fill:none;fill-rule:evenodd;font-size:12px;overflow:visible;stroke-linecap:square;stroke-miterlimit:3}
	]]>
	</style>

	<defs id="Markers">
		<g id="lend5">
			<path d="M 2 1 L 0 0 L 1.98117 -0.993387 C 1.67173 -0.364515 1.67301 0.372641 1.98465 1.00043 " style="stroke:none"/>
		</g>
		<marker id="mrkr5-34" class="st8" v:arrowType="5" v:arrowSize="1" v:setback="14.875" refX="-14.875" orient="auto"
				markerUnits="strokeWidth" overflow="visible">
			<use xlink:href="#lend5" transform="scale(-8.5,-8.5) "/>
		</marker>
		<marker id="mrkr5-49" class="st8" v:arrowType="5" v:arrowSize="1" v:setback="13.375" refX="-13.375" orient="auto"
				markerUnits="strokeWidth" overflow="visible">
			<use xlink:href="#lend5" transform="scale(-8.5,-8.5) "/>
		</marker>
		<marker id="mrkr5-180" class="st17" v:arrowType="5" v:arrowSize="1" v:setback="14.875" refX="-14.875" orient="auto"
				markerUnits="strokeWidth" overflow="visible">
			<use xlink:href="#lend5" transform="scale(-8.5,-8.5) "/>
		</marker>
	</defs>
	<g v:mID="0" v:index="1" v:groupContext="foregroundPage">
		<title>Page-1</title>
		<v:pageProperties v:drawingScale="1" v:pageScale="1" v:drawingUnits="19" v:shadowOffsetX="9" v:shadowOffsetY="-9"/>
		<g id="group1088-1" transform="translate(0.12,-0.12)" v:mID="1088" v:groupContext="group">
			<title>Sheet.1088</title>
			<g id="shape1000-2" v:mID="1000" v:groupContext="shape" transform="translate(15.75,0)">
				<title>Sheet.1000</title>
				<rect x="0" y="0.24" width="551.25" height="682.594" class="st1"/>
			</g>
			<g id="shape1001-4" v:mID="1001" v:groupContext="shape" transform="translate(224.777,-448.494)">
				<title>Sheet.1001</title>
				<desc>G</desc>
				<v:textBlock v:margins="rect(2,2,2,2)"/>
				<v:textRect cx="14.7364" cy="668.097" width="29.48" height="29.4728"/>
				<ellipse cx="14.7364" cy="668.097" rx="14.7364" ry="14.7364" class="st2"/>
				<text x="12.4" y="669.9" class="st3" v:langID="1033"><v:paragraph v:horizAlign="1"/><v:tabList/>G</text>			</g>
			<g id="shape1002-7" v:mID="1002" v:groupContext="shape" transform="translate(270.468,-448.494)">
				<title>Sheet.1002</title>
				<desc>C</desc>
				<v:textBlock v:margins="rect(2,2,2,2)"/>
				<v:textRect cx="14.7364" cy="668.097" width="29.48" height="29.4728"/>
				<ellipse cx="14.7364" cy="668.097" rx="14.7364" ry="14.7364" class="st2"/>
				<text x="12.57" y="669.9" class="st3" v:langID="1033"><v:paragraph v:horizAlign="1"/><v:tabList/>C</text>			</g>
			<g id="shape1003-10" v:mID="1003" v:groupContext="shape" transform="translate(317.937,-448.494)">
				<title>Sheet.1003</title>
				<desc>G</desc>
				<v:textBlock v:margins="rect(2,2,2,2)"/>
				<v:textRect cx="14.7364" cy="668.097" width="29.48" height="29.4728"/>
				<ellipse cx="14.7364" cy="668.097" rx="14.7364" ry="14.7364" class="st2"/>
				<text x="12.4" y="669.9" class="st3" v:langID="1033"><v:paragraph v:horizAlign="1"/><v:tabList/>G</text>			</g>
			<g id="shape1004-13" v:mID="1004" v:groupContext="shape" transform="translate(363.988,-448.494)">
				<title>Sheet.1004</title>
				<desc>T</desc>
				<v:textBlock v:margins="rect(2,2,2,2)"/>
				<v:textRect cx="14.7364" cy="668.097" width="29.48" height="29.4728"/>
				<ellipse cx="14.7364" cy="668.097" rx="14.7364" ry="14.7364" class="st2"/>
				<text x="12.9" y="669.9" class="st3" v:langID="1033"><v:paragraph v:horizAlign="1"/><v:tabList/>T</text>			</g>
			<g id="shape1005-16" v:mID="1005" v:groupContext="shape" transform="translate(412.495,-448.494)">
				<title>Sheet.1005</title>
				<desc>TE</desc>
				<v:textBlock v:margins="rect(2,2,2,2)"/>
				<v:textRect cx="14.7364" cy="668.097" width="29.48" height="29.4728"/>
				<ellipse cx="14.7364" cy="668.097" rx="14.7364" ry="14.7364" class="st4"/>
				<text x="10.9" y="669.9" class="st3" v:langID="1033"><v:paragraph v:horizAlign="1"/><v:tabList/>TE</text>			</g>
			<g id="shape1006-19" v:mID="1006" v:groupContext="shape" transform="translate(272.327,-413.988)">
				<title>Sheet.1006</title>
				<desc>QB</desc>
				<v:textBlock v:margins="rect(2,2,2,2)"/>
				<v:textRect cx="12.8779" cy="669.956" width="25.76" height="25.7559"/>
				<ellipse cx="12.8779" cy="669.956" rx="12.8779" ry="12.8779" class="st2"/>
				<text x="8.54" y="671.76" class="st3" v:langID="1033"><v:paragraph v:horizAlign="1"/><v:tabList/>QB</text>			</g>
			<g id="shape1007-22" v:mID="1007" v:groupContext="shape" transform="translate(180,-448.494)">
				<title>Sheet.1007</title>
				<desc>T</desc>
				<v:textBlock v:margins="rect(2,2,2,2)"/>
				<v:textRect cx="14.7364" cy="668.097" width="29.48" height="29.4728"/>
				<ellipse cx="14.7364" cy="668.097" rx="14.7364" ry="14.7364" class="st2"/>
				<text x="12.9" y="669.9" class="st3" v:langID="1033"><v:paragraph v:horizAlign="1"/><v:tabList/>T</text>			</g>
			<g id="shape1009-25" v:mID="1009" v:groupContext="shape" transform="translate(264.062,-349.619)">
				<title>Sheet.1009</title>
				<desc>Runningback</desc>
				<v:textBlock v:margins="rect(2,2,2,2)"/>
				<v:textRect cx="49.2805" cy="665.334" width="98.57" height="35"/>
				<rect x="0" y="647.834" width="98.561" height="35" class="st5"/>
				<text x="2" y="667.43" class="st6" v:langID="1033"><v:paragraph/><v:tabList/>Runningback</text>			</g>
			<g id="shape1010-28" v:mID="1010" v:groupContext="shape" transform="translate(-277.662,-91.6619) rotate(-55.5392)">
				<title>Sheet.1010</title>
				<path d="M0 682.83 L50.55 682.83" class="st7"/>
			</g>
			<g id="shape1011-35" v:mID="1011" v:groupContext="shape" transform="translate(-197.493,777.551) rotate(-135)">
				<title>Sheet.1011</title>
				<path d="M0 682.83 L35.8 682.83" class="st9"/>
			</g>
			<g id="shape1012-38" v:mID="1012" v:groupContext="shape" transform="translate(32.3009,927.127) rotate(-158.339)">
				<title>Sheet.1012</title>
				<path d="M0 682.83 L82.92 682.83" class="st7"/>
			</g>
			<g id="shape1013-43" v:mID="1013" v:groupContext="shape" transform="translate(-198.836,-181.718) rotate(-45.6137)">
				<title>Sheet.1013</title>
				<path d="M0 679.04 C1.36 681.55 3.34 681.05 5.29 680.63 C37.04 673.86 60.68 688.6 88.87 680.17 L89.21 680.05"
						class="st10"/>
			</g>
			<g id="shape1014-50" v:mID="1014" v:groupContext="shape" transform="translate(38.8842,929.72) rotate(-158.931)">
				<title>Sheet.1014</title>
				<path d="M0 682.83 C15.07 675.08 35.06 672.51 54.94 671.04 C85.13 668.81 115.04 669.1 139.25 681.17 L139.57 681.34"
						class="st10"/>
			</g>
			<g id="shape1015-55" v:mID="1015" v:groupContext="shape" transform="translate(-244.967,722.038) rotate(-128.93)">
				<title>Sheet.1015</title>
				<path d="M0 682.83 L38.14 682.83" class="st9"/>
			</g>
			<g id="shape1016-58" v:mID="1016" v:groupContext="shape" transform="translate(19.0854,-334.56) rotate(-22.9999)">
				<title>Sheet.1016</title>
				<path d="M0 682.83 L59.52 682.83" class="st7"/>
			</g>
			<g id="shape1017-63" v:mID="1017" v:groupContext="shape" transform="translate(-142.377,813.407) rotate(-143.807)">
				<title>Sheet.1017</title>
				<path d="M0 682.83 L40.88 682.83" class="st7"/>
			</g>
			<g id="shape1018-68" v:mID="1018" v:groupContext="shape" transform="translate(-352.099,50.4071) rotate(-69.1942)">
				<title>Sheet.1018</title>
				<path d="M0 682.83 L70.36 682.83" class="st7"/>
			</g>
			<g id="shape1019-73" v:mID="1019" v:groupContext="shape" transform="translate(-125.776,837.057) rotate(-142.986)">
				<title>Sheet.1019</title>
				<path d="M0 682.83 C6.15 680.67 11.21 677.03 16.83 674.81 C27.06 670.77 39.13 671.42 51.21 672.59 C64.68 673.9 78.16
							 675.84 87.83 681 L88.14 681.18" class="st10"/>
			</g>
			<g id="shape1020-78" v:mID="1020" v:groupContext="shape" transform="translate(-84.1331,-276.325) rotate(-32.964)">
				<title>Sheet.1020</title>
				<path d="M0 679.04 C1.55 681.55 3.82 681.05 6.04 680.63 C42.46 673.83 69.53 688.73 101.91 680.05 L102.25 679.95"
						class="st10"/>
			</g>
			<g id="shape1022-83" v:mID="1022" v:groupContext="shape" transform="translate(225,-493.933)">
				<title>Sheet.1022</title>
				<desc>DT</desc>
				<v:textBlock v:margins="rect(2,2,2,2)"/>
				<v:textRect cx="14.7364" cy="668.097" width="29.48" height="29.4728"/>
				<ellipse cx="14.7364" cy="668.097" rx="14.7364" ry="14.7364" class="st11"/>
				<text x="10.74" y="669.9" class="st3" v:langID="1033"><v:paragraph v:horizAlign="1"/><v:tabList/>DT</text>			</g>
			<g id="shape1023-86" v:mID="1023" v:groupContext="shape" transform="translate(317.25,-493.933)">
				<title>Sheet.1023</title>
				<desc>DT</desc>
				<v:textBlock v:margins="rect(2,2,2,2)"/>
				<v:textRect cx="14.7364" cy="668.097" width="29.48" height="29.4728"/>
				<ellipse cx="14.7364" cy="668.097" rx="14.7364" ry="14.7364" class="st11"/>
				<text x="10.74" y="669.9" class="st3" v:langID="1033"><v:paragraph v:horizAlign="1"/><v:tabList/>DT</text>			</g>
			<g id="shape1024-89" v:mID="1024" v:groupContext="shape" transform="translate(202.5,-555.92)">
				<title>Sheet.1024</title>
				<desc>LB</desc>
				<v:textBlock v:margins="rect(2,2,2,2)"/>
				<v:textRect cx="14.7364" cy="668.097" width="29.48" height="29.4728"/>
				<ellipse cx="14.7364" cy="668.097" rx="14.7364" ry="14.7364" class="st11"/>
				<text x="11.07" y="669.9" class="st3" v:langID="1033"><v:paragraph v:horizAlign="1"/><v:tabList/>LB</text>			</g>
			<g id="shape1025-92" v:mID="1025" v:groupContext="shape" transform="translate(384.75,-493.933)">
				<title>Sheet.1025</title>
				<desc>DE</desc>
				<v:textBlock v:margins="rect(2,2,2,2)"/>
				<v:textRect cx="14.7364" cy="668.097" width="29.48" height="29.4728"/>
				<ellipse cx="14.7364" cy="668.097" rx="14.7364" ry="14.7364" class="st11"/>
				<text x="10.57" y="669.9" class="st3" v:langID="1033"><v:paragraph v:horizAlign="1"/><v:tabList/>DE</text>			</g>
			<g id="shape1026-95" v:mID="1026" v:groupContext="shape" transform="translate(168.75,-493.933)">
				<title>Sheet.1026</title>
				<desc>DE</desc>
				<v:textBlock v:margins="rect(2,2,2,2)"/>
				<v:textRect cx="14.7364" cy="668.097" width="29.48" height="29.4728"/>
				<ellipse cx="14.7364" cy="668.097" rx="14.7364" ry="14.7364" class="st11"/>
				<text x="10.57" y="669.9" class="st3" v:langID="1033"><v:paragraph v:horizAlign="1"/><v:tabList/>DE</text>			</g>
			<g id="shape1027-98" v:mID="1027" v:groupContext="shape" transform="translate(274.5,-560.42)">
				<title>Sheet.1027</title>
				<desc>LB</desc>
				<v:textBlock v:margins="rect(2,2,2,2)"/>
				<v:textRect cx="14.7364" cy="668.097" width="29.48" height="29.4728"/>
				<ellipse cx="14.7364" cy="668.097" rx="14.7364" ry="14.7364" class="st11"/>
				<text x="11.07" y="669.9" class="st3" v:langID="1033"><v:paragraph v:horizAlign="1"/><v:tabList/>LB</text>			</g>
			<g id="shape1028-101" v:mID="1028" v:groupContext="shape" transform="translate(341.777,-555.92)">
				<title>Sheet.1028</title>
				<desc>LB</desc>
				<v:textBlock v:margins="rect(2,2,2,2)"/>
				<v:textRect cx="14.7364" cy="668.097" width="29.48" height="29.4728"/>
				<ellipse cx="14.7364" cy="668.097" rx="14.7364" ry="14.7364" class="st11"/>
				<text x="11.07" y="669.9" class="st3" v:langID="1033"><v:paragraph v:horizAlign="1"/><v:tabList/>LB</text>			</g>
			<g id="shape1031-104" v:mID="1031" v:groupContext="shape" transform="translate(18,-635.344)">
				<title>Sheet.1031</title>
				<desc>Pre-Snap</desc>
				<v:textBlock v:margins="rect(2,2,2,2)"/>
				<v:textRect cx="37.0701" cy="665.334" width="74.15" height="35"/>
				<rect x="0" y="647.834" width="74.1403" height="35" class="st5"/>
				<text x="15.95" y="668.33" class="st12" v:langID="1033"><v:paragraph v:horizAlign="1"/><v:tabList/>Pre-Snap</text>			</g>
			<g id="shape1032-107" v:mID="1032" v:groupContext="shape" transform="translate(162.079,-376.901) rotate(-10.4)">
				<title>Sheet.1032</title>
				<path d="M0 682.83 L122.66 682.83" class="st7"/>
			</g>
			<g id="shape1033-112" v:mID="1033" v:groupContext="shape" transform="translate(40.2772,-520.933)">
				<title>Sheet.1033</title>
				<desc>CB</desc>
				<v:textBlock v:margins="rect(2,2,2,2)"/>
				<v:textRect cx="14.7364" cy="668.097" width="29.48" height="29.4728"/>
				<ellipse cx="14.7364" cy="668.097" rx="14.7364" ry="14.7364" class="st11"/>
				<text x="10.57" y="669.9" class="st3" v:langID="1033"><v:paragraph v:horizAlign="1"/><v:tabList/>CB</text>			</g>
			<g id="shape1034-115" v:mID="1034" v:groupContext="shape" transform="translate(514.014,-518.906)">
				<title>Sheet.1034</title>
				<desc>CB</desc>
				<v:textBlock v:margins="rect(2,2,2,2)"/>
				<v:textRect cx="14.7364" cy="668.097" width="29.48" height="29.4728"/>
				<ellipse cx="14.7364" cy="668.097" rx="14.7364" ry="14.7364" class="st11"/>
				<text x="10.57" y="669.9" class="st3" v:langID="1033"><v:paragraph v:horizAlign="1"/><v:tabList/>CB</text>			</g>
			<g id="shape1035-118" v:mID="1035" v:groupContext="shape" transform="translate(180,-633.433)">
				<title>Sheet.1035</title>
				<desc>FS</desc>
				<v:textBlock v:margins="rect(2,2,2,2)"/>
				<v:textRect cx="14.7364" cy="668.097" width="29.48" height="29.4728"/>
				<ellipse cx="14.7364" cy="668.097" rx="14.7364" ry="14.7364" class="st11"/>
				<text x="10.9" y="669.9" class="st3" v:langID="1033"><v:paragraph v:horizAlign="1"/><v:tabList/>FS</text>			</g>
			<g id="shape1036-121" v:mID="1036" v:groupContext="shape" transform="translate(357.527,-633.433)">
				<title>Sheet.1036</title>
				<desc>SS</desc>
				<v:textBlock v:margins="rect(2,2,2,2)"/>
				<v:textRect cx="14.7364" cy="668.097" width="29.48" height="29.4728"/>
				<ellipse cx="14.7364" cy="668.097" rx="14.7364" ry="14.7364" class="st11"/>
				<text x="10.73" y="669.9" class="st3" v:langID="1033"><v:paragraph v:horizAlign="1"/><v:tabList/>SS</text>			</g>
			<g id="shape1037-124" v:mID="1037" v:groupContext="shape" transform="translate(228.826,-90.7842)">
				<title>Sheet.1037</title>
				<desc>G</desc>
				<v:textBlock v:margins="rect(2,2,2,2)"/>
				<v:textRect cx="14.7364" cy="668.097" width="29.48" height="29.4728"/>
				<ellipse cx="14.7364" cy="668.097" rx="14.7364" ry="14.7364" class="st2"/>
				<text x="12.4" y="669.9" class="st3" v:langID="1033"><v:paragraph v:horizAlign="1"/><v:tabList/>G</text>			</g>
			<g id="shape1038-127" v:mID="1038" v:groupContext="shape" transform="translate(282.264,-90.1698)">
				<title>Sheet.1038</title>
				<desc>C</desc>
				<v:textBlock v:margins="rect(2,2,2,2)"/>
				<v:textRect cx="14.7364" cy="668.097" width="29.48" height="29.4728"/>
				<ellipse cx="14.7364" cy="668.097" rx="14.7364" ry="14.7364" class="st2"/>
				<text x="12.57" y="669.9" class="st3" v:langID="1033"><v:paragraph v:horizAlign="1"/><v:tabList/>C</text>			</g>
			<g id="shape1039-130" v:mID="1039" v:groupContext="shape" transform="translate(342,-174.433)">
				<title>Sheet.1039</title>
				<desc>G</desc>
				<v:textBlock v:margins="rect(2,2,2,2)"/>
				<v:textRect cx="14.7364" cy="668.097" width="29.48" height="29.4728"/>
				<ellipse cx="14.7364" cy="668.097" rx="14.7364" ry="14.7364" class="st13"/>
				<text x="12.4" y="669.9" class="st3" v:langID="1033"><v:paragraph v:horizAlign="1"/><v:tabList/>G</text>			</g>
			<g id="shape1040-133" v:mID="1040" v:groupContext="shape" transform="translate(371.027,-85.6698)">
				<title>Sheet.1040</title>
				<desc>T</desc>
				<v:textBlock v:margins="rect(2,2,2,2)"/>
				<v:textRect cx="14.7364" cy="668.097" width="29.48" height="29.4728"/>
				<ellipse cx="14.7364" cy="668.097" rx="14.7364" ry="14.7364" class="st13"/>
				<text x="12.9" y="669.9" class="st3" v:langID="1033"><v:paragraph v:horizAlign="1"/><v:tabList/>T</text>			</g>
			<g id="shape1041-136" v:mID="1041" v:groupContext="shape" transform="translate(452.027,-162.17)">
				<title>Sheet.1041</title>
				<desc>TE</desc>
				<v:textBlock v:margins="rect(2,2,2,2)"/>
				<v:textRect cx="14.7364" cy="668.097" width="29.48" height="29.4728"/>
				<ellipse cx="14.7364" cy="668.097" rx="14.7364" ry="14.7364" class="st4"/>
				<text x="10.9" y="669.9" class="st3" v:langID="1033"><v:paragraph v:horizAlign="1"/><v:tabList/>TE</text>			</g>
			<g id="shape1042-139" v:mID="1042" v:groupContext="shape" transform="translate(244.244,-38.0283)">
				<title>Sheet.1042</title>
				<desc>QB</desc>
				<v:textBlock v:margins="rect(2,2,2,2)"/>
				<v:textRect cx="12.8779" cy="669.956" width="25.76" height="25.7559"/>
				<ellipse cx="12.8779" cy="669.956" rx="12.8779" ry="12.8779" class="st2"/>
				<text x="8.54" y="671.76" class="st3" v:langID="1033"><v:paragraph v:horizAlign="1"/><v:tabList/>QB</text>			</g>
			<g id="shape1043-142" v:mID="1043" v:groupContext="shape" transform="translate(192.264,-66.4334)">
				<title>Sheet.1043</title>
				<desc>T</desc>
				<v:textBlock v:margins="rect(2,2,2,2)"/>
				<v:textRect cx="14.7364" cy="668.097" width="29.48" height="29.4728"/>
				<ellipse cx="14.7364" cy="668.097" rx="14.7364" ry="14.7364" class="st2"/>
				<text x="12.9" y="669.9" class="st3" v:langID="1033"><v:paragraph v:horizAlign="1"/><v:tabList/>T</text>			</g>
			<g id="shape1044-145" v:mID="1044" v:groupContext="shape" transform="translate(418.5,-11.7188)">
				<title>Sheet.1044</title>
				<desc>NF = Non-Factor in the play outcome</desc>
				<v:textBlock v:margins="rect(2,2,2,2)"/>
				<v:textRect cx="72" cy="665.334" width="144.01" height="35"/>
				<rect x="0" y="647.834" width="144" height="35" class="st5"/>
				<text x="2" y="667.73" class="st14" v:langID="1033"><v:paragraph/><v:tabList/>NF = Non-Factor in the play outcome</text>			</g>
			<g id="shape1045-148" v:mID="1045" v:groupContext="shape" transform="translate(-190.487,159.147) rotate(-55.5392)">
				<title>Sheet.1045</title>
				<path d="M0 682.83 L58.38 682.83" class="st7"/>
			</g>
			<g id="shape1056-153" v:mID="1056" v:groupContext="shape" transform="translate(354.622,-115.717)">
				<title>Sheet.1056</title>
				<desc>RB</desc>
				<v:textBlock v:margins="rect(2,2,2,2)"/>
				<v:textRect cx="11.689" cy="671.145" width="23.38" height="23.3779"/>
				<ellipse cx="11.689" cy="671.145" rx="11.689" ry="11.689" class="st15"/>
				<text x="7.52" y="672.94" class="st3" v:langID="1033"><v:paragraph v:horizAlign="1"/><v:tabList/>RB</text>			</g>
			<g id="shape1057-156" v:mID="1057" v:groupContext="shape" transform="translate(243.568,-117.17)">
				<title>Sheet.1057</title>
				<desc>NF</desc>
				<v:textBlock v:margins="rect(2,2,2,2)"/>
				<v:textRect cx="14.7364" cy="668.097" width="29.48" height="29.4728"/>
				<ellipse cx="14.7364" cy="668.097" rx="14.7364" ry="14.7364" class="st11"/>
				<text x="10.74" y="669.9" class="st3" v:langID="1033"><v:paragraph v:horizAlign="1"/><v:tabList/>NF</text>			</g>
			<g id="shape1058-159" v:mID="1058" v:groupContext="shape" transform="translate(303.527,-115.717)">
				<title>Sheet.1058</title>
				<desc>NF</desc>
				<v:textBlock v:margins="rect(2,2,2,2)"/>
				<v:textRect cx="14.7364" cy="668.097" width="29.48" height="29.4728"/>
				<ellipse cx="14.7364" cy="668.097" rx="14.7364" ry="14.7364" class="st11"/>
				<text x="10.74" y="669.9" class="st3" v:langID="1033"><v:paragraph v:horizAlign="1"/><v:tabList/>NF</text>			</g>
			<g id="shape1059-162" v:mID="1059" v:groupContext="shape" transform="translate(183.264,-212.906)">
				<title>Sheet.1059</title>
				<desc>NF</desc>
				<v:textBlock v:margins="rect(2,2,2,2)"/>
				<v:textRect cx="14.7364" cy="668.097" width="29.48" height="29.4728"/>
				<ellipse cx="14.7364" cy="668.097" rx="14.7364" ry="14.7364" class="st11"/>
				<text x="10.74" y="669.9" class="st3" v:langID="1033"><v:paragraph v:horizAlign="1"/><v:tabList/>NF</text>			</g>
			<g id="shape1060-165" v:mID="1060" v:groupContext="shape" transform="translate(399.264,-72.1698)">
				<title>Sheet.1060</title>
				<desc>NF</desc>
				<v:textBlock v:margins="rect(2,2,2,2)"/>
				<v:textRect cx="14.7364" cy="668.097" width="29.48" height="29.4728"/>
				<ellipse cx="14.7364" cy="668.097" rx="14.7364" ry="14.7364" class="st11"/>
				<text x="10.74" y="669.9" class="st3" v:langID="1033"><v:paragraph v:horizAlign="1"/><v:tabList/>NF</text>			</g>
			<g id="shape1061-168" v:mID="1061" v:groupContext="shape" transform="translate(174.264,-95.9062)">
				<title>Sheet.1061</title>
				<desc>NF</desc>
				<v:textBlock v:margins="rect(2,2,2,2)"/>
				<v:textRect cx="14.7364" cy="668.097" width="29.48" height="29.4728"/>
				<ellipse cx="14.7364" cy="668.097" rx="14.7364" ry="14.7364" class="st11"/>
				<text x="10.74" y="669.9" class="st3" v:langID="1033"><v:paragraph v:horizAlign="1"/><v:tabList/>NF</text>			</g>
			<g id="shape1064-171" v:mID="1064" v:groupContext="shape" transform="translate(1.59872E-14,-298.906)">
				<title>Sheet.1064</title>
				<desc>Post-Snap</desc>
				<v:textBlock v:margins="rect(2,2,2,2)"/>
				<v:textRect cx="56.1403" cy="665.334" width="112.29" height="35"/>
				<rect x="0" y="647.834" width="112.281" height="35" class="st5"/>
				<text x="32.79" y="668.33" class="st12" v:langID="1033"><v:paragraph v:horizAlign="1"/><v:tabList/>Post-Snap</text>			</g>
			<g id="shape1065-174" v:mID="1065" v:groupContext="shape" transform="translate(1056.12,247.484) rotate(77.1957)">
				<title>Sheet.1065</title>
				<path d="M0 682.83 L44.11 682.83" class="st16"/>
			</g>
			<g id="shape1066-181" v:mID="1066" v:groupContext="shape" transform="translate(41.2907,-228.433)">
				<title>Sheet.1066</title>
				<desc>NF</desc>
				<v:textBlock v:margins="rect(2,2,2,2)"/>
				<v:textRect cx="14.7364" cy="668.097" width="29.48" height="29.4728"/>
				<ellipse cx="14.7364" cy="668.097" rx="14.7364" ry="14.7364" class="st11"/>
				<text x="10.74" y="669.9" class="st3" v:langID="1033"><v:paragraph v:horizAlign="1"/><v:tabList/>NF</text>			</g>
			<g id="shape1067-184" v:mID="1067" v:groupContext="shape" transform="translate(520.764,-203.906)">
				<title>Sheet.1067</title>
				<desc>NF</desc>
				<v:textBlock v:margins="rect(2,2,2,2)"/>
				<v:textRect cx="14.7364" cy="668.097" width="29.48" height="29.4728"/>
				<ellipse cx="14.7364" cy="668.097" rx="14.7364" ry="14.7364" class="st11"/>
				<text x="10.74" y="669.9" class="st3" v:langID="1033"><v:paragraph v:horizAlign="1"/><v:tabList/>NF</text>			</g>
			<g id="shape1068-187" v:mID="1068" v:groupContext="shape" transform="translate(173.027,-283.313)">
				<title>Sheet.1068</title>
				<desc>NF</desc>
				<v:textBlock v:margins="rect(2,2,2,2)"/>
				<v:textRect cx="14.7364" cy="668.097" width="29.48" height="29.4728"/>
				<ellipse cx="14.7364" cy="668.097" rx="14.7364" ry="14.7364" class="st11"/>
				<text x="10.74" y="669.9" class="st3" v:langID="1033"><v:paragraph v:horizAlign="1"/><v:tabList/>NF</text>			</g>
			<g id="shape1069-190" v:mID="1069" v:groupContext="shape" transform="translate(371.027,-283.313)">
				<title>Sheet.1069</title>
				<desc>F</desc>
				<v:textBlock v:margins="rect(2,2,2,2)"/>
				<v:textRect cx="14.7364" cy="668.097" width="29.48" height="29.4728"/>
				<ellipse cx="14.7364" cy="668.097" rx="14.7364" ry="14.7364" class="st18"/>
				<text x="12.9" y="669.9" class="st19" v:langID="1033"><v:paragraph v:horizAlign="1"/><v:tabList/>F</text>			</g>
			<g id="shape1070-193" v:mID="1070" v:groupContext="shape" transform="translate(31.5,-338.906)">
				<title>Sheet.1070</title>
				<path d="M0 682.83 L523.8 682.83" class="st20"/>
			</g>
			<g id="shape1071-196" v:mID="1071" v:groupContext="shape" transform="translate(659.329,-149.613) rotate(25.0169)">
				<title>Sheet.1071</title>
				<path d="M0 682.83 L32.29 682.83" class="st16"/>
			</g>
			<g id="shape1063-201" v:mID="1063" v:groupContext="shape" transform="translate(342.791,-205.8)">
				<title>Sheet.1063</title>
				<desc>F</desc>
				<v:textBlock v:margins="rect(2,2,2,2)"/>
				<v:textRect cx="14.7364" cy="668.097" width="29.48" height="29.4728"/>
				<ellipse cx="14.7364" cy="668.097" rx="14.7364" ry="14.7364" class="st18"/>
				<text x="12.9" y="669.9" class="st19" v:langID="1033"><v:paragraph v:horizAlign="1"/><v:tabList/>F</text>			</g>
			<g id="shape1072-204" v:mID="1072" v:groupContext="shape" transform="translate(494.227,-188.475) rotate(15.5241)">
				<title>Sheet.1072</title>
				<path d="M0 682.83 L32.28 682.83" class="st16"/>
			</g>
			<g id="shape1062-209" v:mID="1062" v:groupContext="shape" transform="translate(282.264,-201.433)">
				<title>Sheet.1062</title>
				<desc>F</desc>
				<v:textBlock v:margins="rect(2,2,2,2)"/>
				<v:textRect cx="14.7364" cy="668.097" width="29.48" height="29.4728"/>
				<ellipse cx="14.7364" cy="668.097" rx="14.7364" ry="14.7364" class="st18"/>
				<text x="12.9" y="669.9" class="st19" v:langID="1033"><v:paragraph v:horizAlign="1"/><v:tabList/>F</text>			</g>
			<g id="shape1073-212" v:mID="1073" v:groupContext="shape" transform="translate(418.5,-22.4688)">
				<title>Sheet.1073</title>
				<desc>F = A Factor (in tackling)</desc>
				<v:textBlock v:margins="rect(2,2,2,2)"/>
				<v:textRect cx="49.2805" cy="665.334" width="98.57" height="35"/>
				<rect x="0" y="647.834" width="98.561" height="35" class="st5"/>
				<text x="2" y="667.73" class="st14" v:langID="1033"><v:paragraph/><v:tabList/>F = A Factor (in tackling)</text>			</g>
			<g id="shape1074-215" v:mID="1074" v:groupContext="shape" transform="translate(394.748,-198.106) rotate(15.5241)">
				<title>Sheet.1074</title>
				<path d="M0 682.83 L12.71 682.83" class="st16"/>
			</g>
			<g id="shape1075-220" v:mID="1075" v:groupContext="shape" transform="translate(384.299,-267.915) rotate(15.5241)">
				<title>Sheet.1075</title>
				<path d="M0 682.83 L9.54 682.83" class="st16"/>
			</g>
			<g id="shape1076-225" v:mID="1076" v:groupContext="shape" transform="translate(252.693,-213.392) rotate(15.5241)">
				<title>Sheet.1076</title>
				<path d="M0 682.83 L9.54 682.83" class="st16"/>
			</g>
			<g id="shape1077-230" v:mID="1077" v:groupContext="shape" transform="translate(651.847,1138.29) rotate(168.976)">
				<title>Sheet.1077</title>
				<path d="M0 682.83 L20.91 682.83" class="st16"/>
			</g>
			<g id="shape1078-235" v:mID="1078" v:groupContext="shape" transform="translate(41.7347,-117.844)">
				<title>Sheet.1078</title>
				<desc>Left Side Defensive Linemen effectively are no longer a facto...</desc>
				<v:textBlock v:margins="rect(2,2,2,2)"/>
				<v:textRect cx="79.7653" cy="665.334" width="159.54" height="35"/>
				<rect x="0" y="647.834" width="159.531" height="35" class="st5"/>
				<text x="2" y="654.83" class="st6" v:langID="1033"><v:paragraph/><v:tabList/>Left Side Defensive Linemen effectively are no <tspan
							x="2" dy="1.2em" class="st21">longer a factor if running back speed &#62; threshold.  </tspan>  <v:newlineChar/><v:newlineChar/></text>			</g>
			<g id="shape1079-239" v:mID="1079" v:groupContext="shape" transform="translate(-43.5715,-25.6134) rotate(-33.4242)">
				<title>Sheet.1079</title>
				<path d="M0 682.83 L14.08 682.83" class="st16"/>
			</g>
			<g id="shape1080-244" v:mID="1080" v:groupContext="shape" transform="translate(41.7347,-188.094)">
				<title>Sheet.1080</title>
				<desc>LHS (left-hand side) is no longer a factor</desc>
				<v:textBlock v:margins="rect(2,2,2,2)"/>
				<v:textRect cx="79.7653" cy="665.334" width="159.54" height="35"/>
				<rect x="0" y="647.834" width="159.531" height="35" class="st5"/>
				<text x="2" y="667.43" class="st6" v:langID="1033"><v:paragraph/><v:tabList/>LHS (left-hand side) is no longer a factor</text>			</g>
			<g id="shape1082-247" v:mID="1082" v:groupContext="shape" transform="translate(227.469,-152.594)">
				<title>Sheet.1082</title>
				<desc>Quality of this Offensive Player is critical</desc>
				<v:textBlock v:margins="rect(2,2,2,2)"/>
				<v:textRect cx="79.7653" cy="665.334" width="159.54" height="35"/>
				<rect x="0" y="647.834" width="159.531" height="35" class="st5"/>
				<text x="42.81" y="663.23" class="st22" v:langID="1033"><v:paragraph v:horizAlign="1"/><v:tabList/>Quality of this Offensive <v:newlineChar/><tspan
							x="55.46" dy="1.2em" class="st21">Player is critical</tspan></text>			</g>
			<g id="shape1083-251" v:mID="1083" v:groupContext="shape" transform="translate(28.26,-12.0263)">
				<title>Sheet.1083</title>
				<desc>Probability of being tackled is the summation of the conditio...</desc>
				<v:textBlock v:margins="rect(2,2,2,2)"/>
				<v:textRect cx="85.9528" cy="656.955" width="171.91" height="51.7579"/>
				<rect x="0" y="631.076" width="171.906" height="51.7579" class="st5"/>
				<text x="2" y="646.45" class="st23" v:langID="1033"><v:paragraph/><v:tabList/>Probability of being tackled is the summation of the <tspan
							x="2" dy="1.2em" class="st21">conditional probabilities:<v:newlineChar/></tspan><tspan x="2" dy="1.2em"
							class="st21">P(D_i will make the tackle | Quality of the mirror O) for </tspan><tspan x="2" dy="1.2em"
							class="st21">each of the 11 defensive players...</tspan></text>			</g>
			<g id="shape1021-257" v:mID="1021" v:groupContext="shape" transform="translate(273.497,-377.305)">
				<title>Sheet.1021</title>
				<desc>RB</desc>
				<v:textBlock v:margins="rect(2,2,2,2)"/>
				<v:textRect cx="11.689" cy="671.145" width="23.38" height="23.3779"/>
				<ellipse cx="11.689" cy="671.145" rx="11.689" ry="11.689" class="st15"/>
				<text x="7.52" y="672.94" class="st3" v:langID="1033"><v:paragraph v:horizAlign="1"/><v:tabList/>RB</text>			</g>
			<g id="shape1085-260" v:mID="1085" v:groupContext="shape" transform="translate(73.9513,-352.297) rotate(-18.7273)">
				<title>Sheet.1085</title>
				<path d="M0 679.04 C1.85 681.55 4.55 681.05 7.21 680.63 C50.88 673.79 83.28 688.89 122.16 679.91 L122.51 679.82"
						class="st10"/>
			</g>
			<g id="shape1086-265" v:mID="1086" v:groupContext="shape" transform="translate(-357.98,-22.6801) rotate(-64.8319)">
				<title>Sheet.1086</title>
				<path d="M0 682.83 L32.24 682.83" class="st7"/>
			</g>
			<g id="shape1087-270" v:mID="1087" v:groupContext="shape" transform="translate(344.469,-103.094)">
				<title>Sheet.1087</title>
				<desc>Quality of this Offensive Player is critical</desc>
				<v:textBlock v:margins="rect(2,2,2,2)"/>
				<v:textRect cx="79.7653" cy="665.334" width="159.54" height="35"/>
				<rect x="0" y="647.834" width="159.531" height="35" class="st5"/>
				<text x="42.81" y="663.23" class="st22" v:langID="1033"><v:paragraph v:horizAlign="1"/><v:tabList/>Quality of this Offensive <v:newlineChar/><tspan
							x="55.46" dy="1.2em" class="st21">Player is critical</tspan></text>			</g>
		</g>
	</g>
</svg>
