<?xml version="1.0" encoding="UTF-8" standalone="no"?>
<!DOCTYPE svg PUBLIC "-//W3C//DTD SVG 1.1//EN" "http://www.w3.org/Graphics/SVG/1.1/DTD/svg11.dtd">
<!-- Generated by Microsoft Visio, SVG Export theline.svg Page-1 -->
<svg xmlns="http://www.w3.org/2000/svg" xmlns:xlink="http://www.w3.org/1999/xlink" xmlns:ev="http://www.w3.org/2001/xml-events"
		xmlns:v="http://schemas.microsoft.com/visio/2003/SVGExtensions/" width="8.5in" height="11in" viewBox="0 0 612 792"
		xml:space="preserve" color-interpolation-filters="sRGB" class="st12">
	<v:documentProperties v:langID="1033" v:viewMarkup="false">
		<v:userDefs>
			<v:ud v:nameU="msvNoAutoConnect" v:val="VT0(1):26"/>
		</v:userDefs>
	</v:documentProperties>

	<style type="text/css">
	<![CDATA[
		.st1 {fill:#7f7f7f;stroke:#000000;stroke-linecap:round;stroke-linejoin:round;stroke-width:0.24}
		.st2 {fill:#ffffff;stroke:#548bd4;stroke-linecap:round;stroke-linejoin:round;stroke-width:0.25}
		.st3 {fill:#000000;font-family:Arial;font-size:0.416656em}
		.st4 {fill:#ffffff;stroke:#548bd4;stroke-dasharray:0,1.25;stroke-linecap:round;stroke-linejoin:round;stroke-width:0.25}
		.st5 {fill:none;stroke:none;stroke-linecap:round;stroke-linejoin:round;stroke-width:0.24}
		.st6 {fill:#ffffff;font-family:Arial;font-size:0.499992em}
		.st7 {marker-end:url(#mrkr5-37);stroke:#ffff00;stroke-dasharray:1.68,1.2;stroke-linecap:round;stroke-linejoin:round;stroke-width:0.24}
		.st8 {fill:#ffff00;fill-opacity:1;stroke:#ffff00;stroke-opacity:1;stroke-width:0.11764705882353}
		.st9 {marker-end:url(#mrkr5-54);stroke:#ffff00;stroke-dasharray:1.68,1.2;stroke-linecap:round;stroke-linejoin:round;stroke-width:0.24}
		.st10 {stroke:#ffff00;stroke-dasharray:1.68,1.2;stroke-linecap:round;stroke-linejoin:round;stroke-width:0.24}
		.st11 {fill:#ffff00;stroke:#548bd4;stroke-linecap:round;stroke-linejoin:round;stroke-width:0.25}
		.st12 {fill:none;fill-rule:evenodd;font-size:12px;overflow:visible;stroke-linecap:square;stroke-miterlimit:3}
	]]>
	</style>

	<defs id="Markers">
		<g id="lend5">
			<path d="M 2 1 L 0 0 L 1.98117 -0.993387 C 1.67173 -0.364515 1.67301 0.372641 1.98465 1.00043 " style="stroke:none"/>
		</g>
		<marker id="mrkr5-37" class="st8" v:arrowType="5" v:arrowSize="1" v:setback="14.875" refX="-14.875" orient="auto"
				markerUnits="strokeWidth" overflow="visible">
			<use xlink:href="#lend5" transform="scale(-8.5,-8.5) "/>
		</marker>
		<marker id="mrkr5-54" class="st8" v:arrowType="5" v:arrowSize="1" v:setback="13.375" refX="-13.375" orient="auto"
				markerUnits="strokeWidth" overflow="visible">
			<use xlink:href="#lend5" transform="scale(-8.5,-8.5) "/>
		</marker>
	</defs>
	<g v:mID="0" v:index="1" v:groupContext="foregroundPage">
		<title>Page-1</title>
		<v:pageProperties v:drawingScale="1" v:pageScale="1" v:drawingUnits="19" v:shadowOffsetX="9" v:shadowOffsetY="-9"/>
		<g id="group1-1" transform="translate(180,-391.5)" v:mID="1" v:groupContext="group">
			<title>Sheet.1</title>
			<g id="shape2-2" v:mID="2" v:groupContext="shape">
				<title>Sheet.2</title>
				<rect x="0" y="675" width="243" height="117" class="st1"/>
			</g>
			<g id="shape3-4" v:mID="3" v:groupContext="shape" transform="translate(80.9646,-72)">
				<title>Sheet.3</title>
				<desc>G</desc>
				<v:textBlock v:margins="rect(2,2,2,2)"/>
				<v:textRect cx="9.47341" cy="782.527" width="18.95" height="18.9468"/>
				<ellipse cx="9.47341" cy="782.527" rx="9.47341" ry="9.47341" class="st2"/>
				<text x="7.53" y="784.03" class="st3" v:langID="1033"><v:paragraph v:horizAlign="1"/><v:tabList/>G</text>			</g>
			<g id="shape4-7" v:mID="4" v:groupContext="shape" transform="translate(110.25,-72)">
				<title>Sheet.4</title>
				<desc>C</desc>
				<v:textBlock v:margins="rect(2,2,2,2)"/>
				<v:textRect cx="9.47341" cy="782.527" width="18.95" height="18.9468"/>
				<ellipse cx="9.47341" cy="782.527" rx="9.47341" ry="9.47341" class="st2"/>
				<text x="7.67" y="784.03" class="st3" v:langID="1033"><v:paragraph v:horizAlign="1"/><v:tabList/>C</text>			</g>
			<g id="shape5-10" v:mID="5" v:groupContext="shape" transform="translate(140.765,-72)">
				<title>Sheet.5</title>
				<desc>G</desc>
				<v:textBlock v:margins="rect(2,2,2,2)"/>
				<v:textRect cx="9.47341" cy="782.527" width="18.95" height="18.9468"/>
				<ellipse cx="9.47341" cy="782.527" rx="9.47341" ry="9.47341" class="st2"/>
				<text x="7.53" y="784.03" class="st3" v:langID="1033"><v:paragraph v:horizAlign="1"/><v:tabList/>G</text>			</g>
			<g id="shape6-13" v:mID="6" v:groupContext="shape" transform="translate(170.37,-72)">
				<title>Sheet.6</title>
				<desc>T</desc>
				<v:textBlock v:margins="rect(2,2,2,2)"/>
				<v:textRect cx="9.47341" cy="782.527" width="18.95" height="18.9468"/>
				<ellipse cx="9.47341" cy="782.527" rx="9.47341" ry="9.47341" class="st2"/>
				<text x="7.95" y="784.03" class="st3" v:langID="1033"><v:paragraph v:horizAlign="1"/><v:tabList/>T</text>			</g>
			<g id="shape7-16" v:mID="7" v:groupContext="shape" transform="translate(201.553,-72)">
				<title>Sheet.7</title>
				<desc>TE</desc>
				<v:textBlock v:margins="rect(2,2,2,2)"/>
				<v:textRect cx="9.47341" cy="782.527" width="18.95" height="18.9468"/>
				<ellipse cx="9.47341" cy="782.527" rx="9.47341" ry="9.47341" class="st4"/>
				<text x="6.28" y="784.03" class="st3" v:langID="1033"><v:paragraph v:horizAlign="1"/><v:tabList/>TE</text>			</g>
			<g id="shape8-19" v:mID="8" v:groupContext="shape" transform="translate(111.445,-49.8177)">
				<title>Sheet.8</title>
				<desc>QB</desc>
				<v:textBlock v:margins="rect(2,2,2,2)"/>
				<v:textRect cx="8.27867" cy="783.721" width="16.56" height="16.5573"/>
				<ellipse cx="8.27867" cy="783.721" rx="8.27867" ry="8.27867" class="st2"/>
				<text x="4.67" y="785.22" class="st3" v:langID="1033"><v:paragraph v:horizAlign="1"/><v:tabList/>QB</text>			</g>
			<g id="shape9-22" v:mID="9" v:groupContext="shape" transform="translate(53.6157,-72)">
				<title>Sheet.9</title>
				<desc>T</desc>
				<v:textBlock v:margins="rect(2,2,2,2)"/>
				<v:textRect cx="9.47341" cy="782.527" width="18.95" height="18.9468"/>
				<ellipse cx="9.47341" cy="782.527" rx="9.47341" ry="9.47341" class="st2"/>
				<text x="7.95" y="784.03" class="st3" v:langID="1033"><v:paragraph v:horizAlign="1"/><v:tabList/>T</text>			</g>
			<g id="shape10-25" v:mID="10" v:groupContext="shape" transform="translate(15.9518,-76.5)">
				<title>Sheet.10</title>
				<desc>Strong ‘Line’</desc>
				<v:textBlock v:margins="rect(2,2,2,2)"/>
				<v:textRect cx="31.6803" cy="780.75" width="63.37" height="22.5"/>
				<rect x="0" y="769.5" width="63.3607" height="22.5" class="st5"/>
				<text x="2" y="782.55" class="st6" v:langID="1033"><v:paragraph/><v:tabList/>Strong ‘Line’</text>			</g>
			<g id="shape11-28" v:mID="11" v:groupContext="shape" transform="translate(102.375,-8.4375)">
				<title>Sheet.11</title>
				<desc>Fast Runner</desc>
				<v:textBlock v:margins="rect(2,2,2,2)"/>
				<v:textRect cx="31.6803" cy="780.75" width="63.37" height="22.5"/>
				<rect x="0" y="769.5" width="63.3607" height="22.5" class="st5"/>
				<text x="2" y="782.55" class="st6" v:langID="1033"><v:paragraph/><v:tabList/>Fast Runner</text>			</g>
			<g id="shape12-31" v:mID="12" v:groupContext="shape" transform="translate(-533.202,310.665) rotate(-55.5392)">
				<title>Sheet.12</title>
				<path d="M0 792 L31.22 792" class="st7"/>
			</g>
			<g id="shape13-38" v:mID="13" v:groupContext="shape" transform="translate(-601.873,1085.05) rotate(-114.326)">
				<title>Sheet.13</title>
				<path d="M0 792 L41.49 792" class="st7"/>
			</g>
			<g id="shape14-43" v:mID="14" v:groupContext="shape" transform="translate(-173.17,1493.47) rotate(-158.339)">
				<title>Sheet.14</title>
				<path d="M0 792 L52.03 792" class="st7"/>
			</g>
			<g id="shape15-48" v:mID="15" v:groupContext="shape" transform="translate(-442.772,206.536) rotate(-45.6137)">
				<title>Sheet.15</title>
				<path d="M0 788.21 C0.88 790.71 2.15 790.22 3.4 789.8 C23.43 783.16 38.43 797.21 56.1 789.79 L56.43 789.63"
						class="st9"/>
			</g>
			<g id="shape16-55" v:mID="16" v:groupContext="shape" transform="translate(-165.539,1496.46) rotate(-158.931)">
				<title>Sheet.16</title>
				<path d="M0 792 C9.68 784.24 22.54 781.68 35.32 780.21 C54.41 778.01 73.34 778.26 88.76 789.77 L89.05 789.99"
						class="st9"/>
			</g>
			<g id="shape17-60" v:mID="17" v:groupContext="shape" transform="translate(-495.732,1255.36) rotate(-128.93)">
				<title>Sheet.17</title>
				<path d="M0 792 L24.52 792" class="st10"/>
			</g>
			<g id="shape18-63" v:mID="18" v:groupContext="shape" transform="translate(-189.295,29.3082) rotate(-22.9999)">
				<title>Sheet.18</title>
				<path d="M0 792 L36.99 792" class="st7"/>
			</g>
			<g id="shape19-68" v:mID="19" v:groupContext="shape" transform="translate(-363.621,1377.17) rotate(-143.807)">
				<title>Sheet.19</title>
				<path d="M0 792 L25.01 792" class="st7"/>
			</g>
			<g id="shape20-73" v:mID="20" v:groupContext="shape" transform="translate(-619.985,476.359) rotate(-69.1942)">
				<title>Sheet.20</title>
				<path d="M0 792 L43.96 792" class="st7"/>
			</g>
			<g id="shape21-78" v:mID="21" v:groupContext="shape" transform="translate(-357.008,1389.36) rotate(-142.986)">
				<title>Sheet.21</title>
				<path d="M0 792 C3.95 789.84 7.21 786.2 10.82 783.98 C17.4 779.93 25.16 780.59 32.92 781.76 C41.27 783.01 49.62 784.87
							 55.77 789.61 L56.04 789.86" class="st9"/>
			</g>
			<g id="shape22-83" v:mID="22" v:groupContext="shape" transform="translate(-309.063,96.6498) rotate(-32.964)">
				<title>Sheet.22</title>
				<path d="M0 788.21 C1 790.71 2.45 790.22 3.89 789.8 C26.89 783.11 44.1 797.39 64.44 789.64 L64.77 789.5"
						class="st9"/>
			</g>
			<g id="shape23-88" v:mID="23" v:groupContext="shape" transform="translate(112.197,-26.2357)">
				<title>Sheet.23</title>
				<desc>RB</desc>
				<v:textBlock v:margins="rect(2,2,2,2)"/>
				<v:textRect cx="7.51433" cy="784.486" width="15.03" height="15.0287"/>
				<ellipse cx="7.51433" cy="784.486" rx="7.51433" ry="7.51433" class="st11"/>
				<text x="4.04" y="785.99" class="st3" v:langID="1033"><v:paragraph v:horizAlign="1"/><v:tabList/>RB</text>			</g>
		</g>
	</g>
</svg>
